<?xml version="1.0" encoding="UTF-8" standalone="no" ?>
<!DOCTYPE svg PUBLIC "-//W3C//DTD SVG 1.1//EN" "http://www.w3.org/Graphics/SVG/1.1/DTD/svg11.dtd">
<svg xmlns="http://www.w3.org/2000/svg" xmlns:xlink="http://www.w3.org/1999/xlink" version="1.1" width="100" height="100" viewBox="0 0 1000 1000" xml:space="preserve">
<desc>Created with Fabric.js 5.3.0</desc>
<defs>
</defs>
<g transform="matrix(22.7238112536 0.3966456008 -0.3966456008 22.7238112536 741.1000526023 285.6524025686)" id="jWbBIPkVdZArsfKyFtAmm"  >
<linearGradient id="SVGID_49" gradientUnits="userSpaceOnUse" gradientTransform="matrix(-1 0 0 1 -75.11 0)"  x1="-99.4" y1="19.42" x2="-120.05" y2="0.38">
<stop offset="0%" style="stop-color:rgb(250,172,58);stop-opacity: 1"/>
<stop offset="21%" style="stop-color:rgb(247,156,46);stop-opacity: 1"/>
<stop offset="43%" style="stop-color:rgb(245,135,31);stop-opacity: 1"/>
<stop offset="93%" style="stop-color:rgb(241,103,57);stop-opacity: 1"/>
</linearGradient>
<path style="stroke: none; stroke-width: 1; stroke-dasharray: none; stroke-linecap: butt; stroke-dashoffset: 0; stroke-linejoin: miter; stroke-miterlimit: 4; fill: url(#SVGID_49); fill-rule: nonzero; opacity: 1;" vector-effect="non-scaling-stroke"  transform=" translate(-32.4421873628, -12.385)" d="M 23.04 24.77 C 23.349999999999998 24.11 23.919999999999998 23.28 24.93 22.27 C 25.419999999999998 21.79 26.009999999999998 21.259999999999998 26.73 20.7 C 26.85 20.61 26.97 20.52 27.09 20.43 C 27.21 20.34 27.33 20.25 27.46 20.16 C 32.11 16.79 35.78 16.73 39.31 11.89 C 41.86 8.4 42.39 4.050000000000001 41.830000000000005 0.2400000000000002 C 41.800000000000004 0.1600000000000002 41.760000000000005 0.08000000000000021 41.720000000000006 2.220446049250313e-16 C 41.720000000000006 2.220446049250313e-16 41.410000000000004 1.0900000000000003 40.31000000000001 2.4000000000000004 C 39.95000000000001 2.8300000000000005 37.71000000000001 5.01 34.24000000000001 5.890000000000001 C 30.710000000000008 6.790000000000001 27.73000000000001 9.34 26.91000000000001 10.31 C 26.11000000000001 11.26 23.89000000000001 13.200000000000001 22.97000000000001 19.990000000000002 C 22.97000000000001 20.03 22.960000000000008 20.07 22.95000000000001 20.110000000000003 C 22.94000000000001 20.200000000000003 22.93000000000001 20.300000000000004 22.91000000000001 20.400000000000002 C 22.79000000000001 21.380000000000003 22.87000000000001 23.060000000000002 23.030000000000012 24.770000000000003 Z" stroke-linecap="round" />
</g>
<g transform="matrix(22.7238112536 0.3966456008 -0.3966456008 22.7238112536 755.9806203311 351.2826510518)" id="ynnQXfGrH4bmR9feO_Cs4"  >
<linearGradient id="SVGID_50" gradientUnits="userSpaceOnUse" gradientTransform="matrix(-1 0 0 1 -108.2181476262 -15.2608642423)"  x1="-101.76" y1="23.02" x2="-122.37" y2="2.4">
<stop offset="0%" style="stop-color:rgb(252,187,66);stop-opacity: 1"/>
<stop offset="93%" style="stop-color:rgb(247,152,29);stop-opacity: 1"/>
</linearGradient>
<path style="stroke: none; stroke-width: 1; stroke-dasharray: none; stroke-linecap: butt; stroke-dashoffset: 0; stroke-linejoin: miter; stroke-miterlimit: 4; fill: url(#SVGID_50); fill-rule: nonzero; opacity: 1;" vector-effect="non-scaling-stroke"  transform=" translate(0, 0)" d="M -10.10723 9.50914 C -9.897229999999999 11.66914 -9.53723 13.889140000000001 -9.25723 14.799140000000001 C -9.25723 14.799140000000001 -9.25723 14.799140000000001 -9.25723 14.809140000000001 C -9.24723 14.84914 -9.22723 14.899140000000001 -9.21723 14.939140000000002 C -9.21723 14.939140000000002 -9.21723 14.959140000000001 -9.21723 14.969140000000001 C -9.21723 14.98914 -9.166440000000001 15.01087 -9.15644 15.030870000000002 C -9.04644 14.200870000000002 -8.46723 12.769140000000002 -6.13723 10.729140000000001 C -5.84723 10.479140000000001 -5.527229999999999 10.209140000000001 -5.18723 9.939140000000002 C -4.947229999999999 9.749140000000002 -4.707229999999999 9.569140000000003 -4.46723 9.389140000000001 C -3.20723 8.479140000000001 -2.02723 7.809140000000001 -0.89723 7.219140000000001 C 2.15277 5.629140000000001 4.802770000000001 4.649140000000001 7.382769999999999 1.1191400000000016 C 11.03277 -3.8808599999999984 10.552769999999999 -10.630859999999998 8.642769999999999 -15.030859999999997 C 9.20277 -11.230859999999996 8.672769999999998 -6.880859999999997 6.122769999999999 -3.3808599999999966 C 2.582769999999999 1.4591400000000032 -1.077230000000001 1.5191400000000037 -5.7272300000000005 4.889140000000003 C -5.847230000000001 4.979140000000003 -5.967230000000001 5.069140000000003 -6.097230000000001 5.1591400000000025 C -6.217230000000001 5.249140000000002 -6.337230000000001 5.339140000000002 -6.457230000000001 5.429140000000002 C -7.177230000000001 5.989140000000003 -7.767230000000001 6.519140000000002 -8.257230000000002 6.999140000000002 C -9.277230000000001 7.999140000000002 -9.798150000000001 8.796600000000002 -10.108150000000002 9.456600000000002 z" stroke-linecap="round" />
</g>
<g transform="matrix(22.7238112536 0.3966456008 -0.3966456008 22.7238112536 767.8001523964 751.099114954)" id="5AoIe9uOxztuJnB7HSHD1"  >
<linearGradient id="SVGID_51" gradientUnits="userSpaceOnUse" gradientTransform="matrix(-1 0 0 1 -109.085 -32.8850263291)"  x1="-113.88" y1="40.41" x2="-99.89" y2="23.37">
<stop offset="0%" style="stop-color:rgb(250,204,58);stop-opacity: 1"/>
<stop offset="11%" style="stop-color:rgb(249,193,53);stop-opacity: 1"/>
<stop offset="30%" style="stop-color:rgb(247,164,42);stop-opacity: 1"/>
<stop offset="46%" style="stop-color:rgb(245,135,31);stop-opacity: 1"/>
<stop offset="54%" style="stop-color:rgb(243,124,39);stop-opacity: 1"/>
<stop offset="70%" style="stop-color:rgb(241,108,52);stop-opacity: 1"/>
<stop offset="83%" style="stop-color:rgb(241,103,57);stop-opacity: 1"/>
</linearGradient>
<path style="stroke: none; stroke-width: 1; stroke-dasharray: none; stroke-linecap: butt; stroke-dashoffset: 0; stroke-linejoin: miter; stroke-miterlimit: 4; fill: url(#SVGID_51); fill-rule: nonzero; opacity: 1;" vector-effect="non-scaling-stroke"  transform=" translate(0, 0)" d="M -10.025 -2.64503 C -8.965 0.5649699999999998 -8.295 3.35497 -5.365 6.35497 C -1.0750000000000002 10.75497 5.385 11.064969999999999 9.775 9.62497 C 9.855 9.59497 9.945 9.574969999999999 10.025 9.54497 C 10.025 9.54497 9.035 9.09497 7.915000000000001 7.7849699999999995 C 7.555000000000001 7.36497 5.765000000000001 4.76497 5.335000000000001 1.0449699999999993 C 4.905000000000001 -2.7350300000000005 2.855000000000001 -6.155030000000001 2.035000000000001 -7.115030000000001 C 1.505000000000001 -7.735030000000001 0.6450000000000011 -9.05503 -1.694999999999999 -10.39503 C -2.824999999999999 -9.80503 -4.004999999999999 -9.13503 -5.264999999999999 -8.22503 C -5.504999999999999 -8.05503 -5.744999999999999 -7.875030000000001 -5.9849999999999985 -7.6750300000000005 C -6.334999999999998 -7.40503 -6.6549999999999985 -7.13503 -6.934999999999999 -6.88503 C -9.274999999999999 -4.84503 -9.884999999999998 -3.39503 -9.985 -2.575030000000001 C -9.985 -2.595030000000001 -10.004999999999999 -2.6250300000000006 -10.014999999999999 -2.6450300000000007 z" stroke-linecap="round" />
</g>
<g transform="matrix(-22.7238112536 0.3966456008 0.3966456008 22.7238112536 259.1000526023 290.1524025686)" id="PjAgUMdn4SsICDsttMnJK"  >
<linearGradient id="SVGID_58" gradientUnits="userSpaceOnUse" gradientTransform="matrix(-1 0 0 1 -107.5521873628 -12.385)"  x1="-99.4" y1="19.42" x2="-120.05" y2="0.38">
<stop offset="0%" style="stop-color:rgb(250,172,58);stop-opacity: 1"/>
<stop offset="21%" style="stop-color:rgb(247,156,46);stop-opacity: 1"/>
<stop offset="43%" style="stop-color:rgb(245,135,31);stop-opacity: 1"/>
<stop offset="93%" style="stop-color:rgb(241,103,57);stop-opacity: 1"/>
</linearGradient>
<path style="stroke: none; stroke-width: 1; stroke-dasharray: none; stroke-linecap: butt; stroke-dashoffset: 0; stroke-linejoin: miter; stroke-miterlimit: 4; fill: url(#SVGID_58); fill-rule: nonzero; opacity: 1;" vector-effect="non-scaling-stroke"  transform=" translate(0, 0)" d="M -9.40219 12.385 C -9.092189999999999 11.725 -8.522189999999998 10.895 -7.5121899999999995 9.885 C -7.022189999999999 9.405 -6.432189999999999 8.875 -5.71219 8.315 C -5.5921899999999996 8.225 -5.472189999999999 8.135 -5.352189999999999 8.045 C -5.232189999999999 7.955 -5.112189999999999 7.865 -4.982189999999999 7.775 C -0.3321899999999989 4.405 3.337810000000001 4.345000000000001 6.86781 -0.4949999999999992 C 9.41781 -3.9849999999999994 9.94781 -8.334999999999999 9.38781 -12.145 C 9.35781 -12.225 9.31781 -12.305 9.27781 -12.385 C 9.27781 -12.385 8.96781 -11.295 7.86781 -9.985 C 7.50781 -9.555 5.267810000000001 -7.375 1.7978100000000001 -6.494999999999999 C -1.7321899999999997 -5.594999999999999 -4.71219 -3.044999999999999 -5.53219 -2.0749999999999993 C -6.33219 -1.1249999999999993 -8.55219 0.8150000000000008 -9.47219 7.605 C -9.47219 7.6450000000000005 -9.48219 7.6850000000000005 -9.492189999999999 7.7250000000000005 C -9.502189999999999 7.815 -9.512189999999999 7.915000000000001 -9.532189999999998 8.015 C -9.652189999999997 8.995000000000001 -9.572189999999997 10.675 -9.412189999999999 12.385000000000002 z" stroke-linecap="round" />
</g>
<g transform="matrix(-22.7238112536 0.3966456008 0.3966456008 22.7238112536 245.4029511968 350.497304646)" id="294FLlwg1nEUUs8DUT9xA"  >
<linearGradient id="SVGID_59" gradientUnits="userSpaceOnUse" gradientTransform="matrix(-1 0 0 1 -108.2188324412 -15.2608642423)"  x1="-101.76" y1="23.02" x2="-122.37" y2="2.4">
<stop offset="0%" style="stop-color:rgb(252,187,66);stop-opacity: 1"/>
<stop offset="93%" style="stop-color:rgb(247,152,29);stop-opacity: 1"/>
</linearGradient>
<path style="stroke: none; stroke-width: 1; stroke-dasharray: none; stroke-linecap: butt; stroke-dashoffset: 0; stroke-linejoin: miter; stroke-miterlimit: 4; fill: url(#SVGID_59); fill-rule: nonzero; opacity: 1;" vector-effect="non-scaling-stroke"  transform=" translate(0, 0)" d="M -10.10655 9.50914 C -9.89655 11.66914 -9.53655 13.889140000000001 -9.25655 14.799140000000001 C -9.25655 14.799140000000001 -9.25655 14.799140000000001 -9.25655 14.809140000000001 C -9.246550000000001 14.84914 -9.226550000000001 14.899140000000001 -9.216550000000002 14.939140000000002 C -9.216550000000002 14.939140000000002 -9.216550000000002 14.959140000000001 -9.216550000000002 14.969140000000001 C -9.216550000000002 14.98914 -9.165760000000002 15.01087 -9.15576 15.030870000000002 C -9.045760000000001 14.200870000000002 -8.466550000000002 12.769140000000002 -6.136550000000001 10.729140000000001 C -5.846550000000001 10.479140000000001 -5.52655 10.209140000000001 -5.18655 9.939140000000002 C -4.94655 9.749140000000002 -4.70655 9.569140000000003 -4.466550000000001 9.389140000000001 C -3.206550000000001 8.479140000000001 -2.0265500000000007 7.809140000000001 -0.8965500000000008 7.219140000000001 C 2.153449999999999 5.629140000000001 4.80345 4.649140000000001 7.383449999999998 1.1191400000000016 C 11.033449999999998 -3.8808599999999984 10.553449999999998 -10.630859999999998 8.643449999999998 -15.030859999999997 C 9.203449999999998 -11.230859999999996 8.673449999999997 -6.880859999999997 6.123449999999998 -3.3808599999999966 C 2.5834499999999982 1.4591400000000032 -1.076550000000002 1.5191400000000037 -5.726550000000001 4.889140000000003 C -5.8465500000000015 4.979140000000003 -5.966550000000002 5.069140000000003 -6.0965500000000015 5.1591400000000025 C -6.216550000000002 5.249140000000002 -6.336550000000002 5.339140000000002 -6.456550000000002 5.429140000000002 C -7.1765500000000015 5.989140000000003 -7.766550000000002 6.519140000000002 -8.256550000000002 6.999140000000002 C -9.276550000000002 7.999140000000002 -9.798840000000002 8.718130000000002 -10.108840000000002 9.378130000000002 z" stroke-linecap="round" />
</g>
<g transform="matrix(-22.7238112536 0.3966456008 0.3966456008 22.7238112536 233.65917361 750.5191115224)" id="GhgwuhchjUffUUmaB88DX"  >
<linearGradient id="SVGID_60" gradientUnits="userSpaceOnUse" gradientTransform="matrix(-1 0 0 1 -109.085 -32.8850263291)"  x1="-113.88" y1="40.41" x2="-99.89" y2="23.37">
<stop offset="0%" style="stop-color:rgb(250,204,58);stop-opacity: 1"/>
<stop offset="11%" style="stop-color:rgb(249,193,53);stop-opacity: 1"/>
<stop offset="30%" style="stop-color:rgb(247,164,42);stop-opacity: 1"/>
<stop offset="46%" style="stop-color:rgb(245,135,31);stop-opacity: 1"/>
<stop offset="54%" style="stop-color:rgb(243,124,39);stop-opacity: 1"/>
<stop offset="70%" style="stop-color:rgb(241,108,52);stop-opacity: 1"/>
<stop offset="83%" style="stop-color:rgb(241,103,57);stop-opacity: 1"/>
</linearGradient>
<path style="stroke: none; stroke-width: 1; stroke-dasharray: none; stroke-linecap: butt; stroke-dashoffset: 0; stroke-linejoin: miter; stroke-miterlimit: 4; fill: url(#SVGID_60); fill-rule: nonzero; opacity: 1;" vector-effect="non-scaling-stroke"  transform=" translate(0, 0)" d="M -10.025 -2.64503 C -8.965 0.5649699999999998 -8.295 3.35497 -5.365 6.35497 C -1.0750000000000002 10.75497 5.385 11.064969999999999 9.775 9.62497 C 9.855 9.59497 9.945 9.574969999999999 10.025 9.54497 C 10.025 9.54497 9.035 9.09497 7.915000000000001 7.7849699999999995 C 7.555000000000001 7.36497 5.765000000000001 4.76497 5.335000000000001 1.0449699999999993 C 4.905000000000001 -2.7350300000000005 2.855000000000001 -6.155030000000001 2.035000000000001 -7.115030000000001 C 1.505000000000001 -7.735030000000001 0.6450000000000011 -9.05503 -1.694999999999999 -10.39503 C -2.824999999999999 -9.80503 -4.004999999999999 -9.13503 -5.264999999999999 -8.22503 C -5.504999999999999 -8.05503 -5.744999999999999 -7.875030000000001 -5.9849999999999985 -7.6750300000000005 C -6.334999999999998 -7.40503 -6.6549999999999985 -7.13503 -6.934999999999999 -6.88503 C -9.274999999999999 -4.84503 -9.884999999999998 -3.39503 -9.985 -2.575030000000001 C -9.985 -2.595030000000001 -10.004999999999999 -2.6250300000000006 -10.014999999999999 -2.6450300000000007 z" stroke-linecap="round" />
</g>
</svg>