<svg width="121" height="120" viewBox="0 0 121 120" fill="none" xmlns="http://www.w3.org/2000/svg">
<path d="M62.8772 67.5234C63.7681 65.7151 65.3877 63.4498 68.2353 60.7085C69.6163 59.4062 71.2768 57.9706 73.2991 56.4584C73.6359 56.2156 73.9728 55.9727 74.3097 55.7299C74.6466 55.4871 74.9834 55.2443 75.348 55.0019C88.3962 45.9169 98.5684 45.9282 108.585 32.7285C115.82 23.2107 117.499 11.2199 116.131 0.668274C116.051 0.445841 115.944 0.222923 115.837 0C115.837 0 114.926 2.99604 111.814 6.56171C110.796 7.73218 104.484 13.6461 94.8257 15.9097C85.0004 18.2257 76.6195 25.126 74.3004 27.766C72.0376 30.3517 65.7922 35.6036 62.9144 54.3158C62.9125 54.4264 62.8828 54.5363 62.8532 54.6464C62.8211 54.8945 62.7886 55.1702 62.7283 55.4455C62.3484 58.1468 62.4889 62.7915 62.8495 67.5229L62.8772 67.5234Z" fill="url(#paint0_linear_1056_132)"/>
<path d="M62.8772 67.5235C63.3547 73.5003 64.2448 79.6501 64.9767 82.1774C64.9767 82.1774 64.9767 82.1774 64.9762 82.205C65.002 82.316 65.055 82.4551 65.0808 82.5661C65.0808 82.5661 65.0798 82.6213 65.0793 82.6489C65.0784 82.7042 65.218 82.7667 65.2448 82.8224C65.5898 80.5349 67.264 76.6079 73.819 71.085C74.6347 70.4084 75.5346 69.6779 76.4898 68.9485C77.164 68.4352 77.8377 67.9495 78.5115 67.4639C82.047 65.0109 85.3491 63.217 88.5089 61.6417C97.0376 57.3965 104.428 54.8172 111.748 45.1904C122.104 31.5545 121.101 12.8853 116.02 0.638733C117.389 11.1628 115.71 23.1536 108.474 32.6989C98.4306 45.8981 88.2859 45.8875 75.2377 54.9725C74.9008 55.2153 74.5639 55.4581 74.1993 55.7004C73.8625 55.9433 73.5256 56.1861 73.1887 56.4289C71.1665 57.9411 69.506 59.3768 68.125 60.6791C65.2502 63.3923 63.7681 65.57 62.8772 67.3783V67.5235Z" fill="url(#paint1_linear_1056_132)"/>
<path d="M65.1342 82.556C67.9162 91.4743 69.6378 99.2135 77.6118 107.642C89.2866 120.004 107.172 121.172 119.406 117.405C119.63 117.326 119.88 117.275 120.103 117.196C120.103 117.196 117.381 115.905 114.341 112.233C113.365 111.055 108.53 103.786 107.518 93.4897C106.51 83.0273 100.995 73.4811 98.7691 70.7897C97.3301 69.0514 95.0104 65.3637 88.5915 61.5492C85.4317 63.1246 82.1296 64.9185 78.5941 67.3714C77.9208 67.8294 77.2471 68.3151 76.5724 68.8561C75.5894 69.585 74.6897 70.3154 73.9016 70.9925C67.3189 76.5149 65.5584 80.491 65.2416 82.7513C65.2426 82.696 65.1886 82.6122 65.1619 82.5564L65.1342 82.556Z" fill="url(#paint2_linear_1056_132)"/>
<path d="M57.4061 68.0703C56.5151 66.2621 54.8955 63.9968 52.0479 61.2555C50.6669 59.9531 49.0064 58.5176 46.9842 57.0053C46.6472 56.7625 46.3104 56.5196 45.9736 56.2769C45.6367 56.0341 45.2998 55.7912 44.9352 55.5488C31.887 46.4639 21.7145 46.4751 11.6988 33.2754C4.46393 23.7576 2.78489 11.7668 4.15237 1.21521C4.23163 0.992774 4.3386 0.769855 4.44557 0.546936C4.44557 0.546936 5.35731 3.54298 8.46877 7.10865C9.48713 8.27911 15.7996 14.1931 25.4576 16.4566C35.2827 18.7726 43.6637 25.673 45.9828 28.313C48.2456 30.8986 54.4911 36.1506 57.3688 54.8627C57.3707 54.9733 57.4004 55.0832 57.43 55.1933C57.4621 55.4414 57.4946 55.7171 57.5549 55.9924C57.9348 58.6938 57.7944 63.3384 57.4337 68.0698L57.4061 68.0703Z" fill="url(#paint3_linear_1056_132)"/>
<path d="M57.5483 67.428C57.0708 73.4048 56.1806 79.5546 55.4488 82.0819C55.4488 82.0819 55.4488 82.0819 55.4492 82.1096C55.4234 82.2205 55.3704 82.3597 55.3446 82.4707C55.3446 82.4707 55.3456 82.5258 55.3462 82.5535C55.3471 82.6088 55.2074 82.6712 55.1807 82.727C54.8357 80.4394 53.1615 76.5124 46.6063 70.9895C45.7906 70.3129 44.8909 69.5824 43.9357 68.8531C43.2614 68.3398 42.5877 67.8541 41.914 67.3684C38.3785 64.9154 35.0762 63.1215 31.9165 61.5462C23.388 57.3011 15.9974 54.7217 8.67753 45.0949C-1.67848 31.459 -0.674881 12.7898 4.40492 0.543274C3.03696 11.0674 4.71599 23.0581 11.9514 32.6035C21.9948 45.8027 32.1396 45.792 45.1877 54.8769C45.5246 55.1198 45.8615 55.3626 46.226 55.605C46.563 55.8479 46.8998 56.0906 47.2367 56.3334C49.259 57.8457 50.9194 59.2813 52.3005 60.5836C55.1752 63.2968 56.6573 65.2578 57.5483 67.066V67.428Z" fill="url(#paint4_linear_1056_132)"/>
<path d="M55.3024 82.4853C52.5204 91.4037 50.7988 99.1432 42.8249 107.571C31.15 119.932 13.2644 121.1 1.03 117.335C0.806859 117.255 0.556501 117.205 0.333374 117.125C0.333374 117.125 3.0549 115.835 6.09507 112.162C7.07232 110.984 11.9066 103.716 12.9183 93.4195C13.9269 82.9566 19.4421 73.4105 21.6679 70.719C23.1065 68.9808 25.4258 65.2929 31.8451 61.4786C35.0049 63.0538 38.3071 64.8477 41.8426 67.3008C42.5159 67.7588 43.1896 68.2445 43.8643 68.7854C44.8472 69.5144 45.747 70.2448 46.5349 70.9219C53.1178 76.4443 54.8783 80.4203 55.195 82.6806C55.194 82.6254 55.248 82.5415 55.2748 82.4858L55.3024 82.4853Z" fill="url(#paint5_linear_1056_132)"/>
<defs>
<linearGradient id="paint0_linear_1056_132" x1="66.5997" y1="52.8049" x2="124.582" y2="1.02534" gradientUnits="userSpaceOnUse">
<stop stop-color="#B871FF"/>
<stop offset="0.21" stop-color="#B871FF"/>
<stop offset="0.43" stop-color="#9C39FF"/>
<stop offset="0.93" stop-color="#8019E8"/>
</linearGradient>
<linearGradient id="paint1_linear_1056_132" x1="73.0735" y1="62.8652" x2="131.007" y2="6.71817" gradientUnits="userSpaceOnUse">
<stop stop-color="#D4AAFF"/>
<stop offset="0.93" stop-color="#9C39FF"/>
</linearGradient>
<linearGradient id="paint2_linear_1056_132" x1="113.071" y1="115.485" x2="67.9852" y2="63.429" gradientUnits="userSpaceOnUse">
<stop stop-color="#B871FF"/>
<stop offset="0.125" stop-color="#B871FF"/>
<stop offset="0.3" stop-color="#9C39FF"/>
<stop offset="0.46" stop-color="#8019E8"/>
<stop offset="0.54" stop-color="#8019E8"/>
<stop offset="0.7" stop-color="#6300C6"/>
<stop offset="0.83" stop-color="#6300C6"/>
</linearGradient>
<linearGradient id="paint3_linear_1056_132" x1="53.6835" y1="53.3518" x2="-4.29827" y2="1.57226" gradientUnits="userSpaceOnUse">
<stop stop-color="#B871FF"/>
<stop offset="0.21" stop-color="#B871FF"/>
<stop offset="0.43" stop-color="#9C39FF"/>
<stop offset="0.93" stop-color="#8019E8"/>
</linearGradient>
<linearGradient id="paint4_linear_1056_132" x1="47.3557" y1="62.7697" x2="-10.577" y2="6.62267" gradientUnits="userSpaceOnUse">
<stop stop-color="#D4AAFF"/>
<stop offset="0.93" stop-color="#9C39FF"/>
</linearGradient>
<linearGradient id="paint5_linear_1056_132" x1="9.35237" y1="115.485" x2="52.4774" y2="63.3882" gradientUnits="userSpaceOnUse">
<stop stop-color="#B871FF"/>
<stop offset="0.119792" stop-color="#B871FF"/>
<stop offset="0.3" stop-color="#9C39FF"/>
<stop offset="0.46" stop-color="#8019E8"/>
<stop offset="0.54" stop-color="#8019E8"/>
<stop offset="0.7" stop-color="#6300C6"/>
<stop offset="0.83" stop-color="#6300C6"/>
</linearGradient>
</defs>
</svg>
