<svg width="60" height="60" viewBox="0 0 60 60" fill="none" xmlns="http://www.w3.org/2000/svg">
<path d="M30 4.99001C34.8665 4.98361 39.5444 6.87211 43.0425 10.2554C46.5406 13.6387 48.584 18.251 48.74 23.115L48.75 23.74V33.9825L52.2 41.8725C52.4075 42.3479 52.4934 42.8676 52.4499 43.3845C52.4064 43.9014 52.2349 44.3994 51.9509 44.8335C51.6669 45.2676 51.2792 45.6241 50.823 45.871C50.3668 46.1178 49.8562 46.2472 49.3375 46.2475L37.5 46.255C37.5025 48.2075 36.7436 50.084 35.3844 51.4857C34.0252 52.8875 32.173 53.7039 30.2213 53.7615C28.2697 53.8191 26.3725 53.1134 24.933 51.7943C23.4935 50.4752 22.6251 48.6467 22.5125 46.6975L22.5 46.2475H10.6875C10.1695 46.2469 9.6598 46.1176 9.20412 45.8714C8.74844 45.6251 8.36107 45.2695 8.07679 44.8365C7.7925 44.4035 7.62021 43.9067 7.57539 43.3906C7.53057 42.8746 7.61462 42.3555 7.81998 41.88L11.25 33.985V23.74C11.25 13.3525 19.63 4.99001 30 4.99001ZM33.75 46.25L26.25 46.255C26.2498 47.2183 26.6203 48.1446 27.2847 48.8421C27.9491 49.5396 28.8564 49.9546 29.8185 50.0013C30.7807 50.0479 31.7238 49.7225 32.4525 49.0925C33.1812 48.4625 33.6395 47.5763 33.7325 46.6175L33.7475 46.25H33.75ZM30 8.74001C21.7 8.74001 15 15.425 15 23.74V34.765L11.64 42.5H48.3825L45 34.7675V23.7725L44.99 23.21C44.8601 19.3236 43.223 15.6401 40.4253 12.9394C37.6275 10.2387 33.8886 8.73264 30 8.74001Z" fill="#7C3AED"/>
</svg>
