<svg width="60" height="60" viewBox="0 0 60 60" fill="none" xmlns="http://www.w3.org/2000/svg">
<path d="M30 5C43.8075 5 55 16.1925 55 30C55 43.8075 43.8075 55 30 55C26.01 55.0055 22.077 54.0521 18.5325 52.22L8.96749 54.8875C8.43384 55.0364 7.8702 55.0408 7.3343 54.9002C6.7984 54.7596 6.30953 54.479 5.91776 54.0872C5.526 53.6955 5.24543 53.2066 5.10481 52.6707C4.96418 52.1348 4.96856 51.5711 5.11749 51.0375L7.78749 41.48C5.95087 37.9323 4.9948 33.9949 4.99999 30C4.99999 16.1925 16.1925 5 30 5ZM30 8.75C24.3641 8.75 18.9591 10.9888 14.974 14.974C10.9888 18.9591 8.74999 24.3641 8.74999 30C8.74999 33.675 9.68249 37.2075 11.4325 40.3425L11.8075 41.0175L9.02749 50.9775L18.995 48.1975L19.67 48.5725C22.5059 50.1492 25.6653 51.0556 28.9059 51.222C32.1464 51.3885 35.382 50.8106 38.3646 49.5327C41.3472 48.2549 43.9975 46.3109 46.1123 43.85C48.2272 41.3891 49.7504 38.4765 50.5651 35.3357C51.3799 32.1948 51.4645 28.9091 50.8126 25.7305C50.1606 22.5518 48.7894 19.5647 46.8041 16.9982C44.8188 14.4316 42.272 12.3538 39.3592 10.9241C36.4464 9.49432 33.2448 8.75062 30 8.75ZM21.875 32.5H33.12C33.5951 32.5001 34.0523 32.6806 34.3995 33.0049C34.7466 33.3293 34.9577 33.7732 34.9901 34.2472C35.0224 34.7212 34.8737 35.1897 34.5739 35.5582C34.2741 35.9268 33.8456 36.1677 33.375 36.2325L33.12 36.25H21.875C21.3999 36.2499 20.9426 36.0694 20.5955 35.7451C20.2484 35.4207 20.0373 34.9768 20.0049 34.5028C19.9725 34.0288 20.1213 33.5603 20.4211 33.1918C20.7209 32.8232 21.1494 32.5823 21.62 32.5175L21.875 32.5ZM21.875 23.75H38.1375C38.6123 23.7508 39.0692 23.9317 39.4159 24.2562C39.7625 24.5807 39.9731 25.0247 40.0052 25.4984C40.0372 25.9722 39.8883 26.4405 39.5885 26.8087C39.2887 27.177 38.8604 27.4178 38.39 27.4825L38.1375 27.5H21.875C21.3999 27.4999 20.9426 27.3194 20.5955 26.9951C20.2484 26.6707 20.0373 26.2268 20.0049 25.7528C19.9725 25.2788 20.1213 24.8103 20.4211 24.4418C20.7209 24.0732 21.1494 23.8323 21.62 23.7675L21.875 23.75Z" fill="#7C3AED"/>
<circle cx="49" cy="16" r="10" fill="#1AE847"/>
</svg>
