<svg xmlns="http://www.w3.org/2000/svg" viewBox="0 0 21 21"><defs><style>.cls-1{fill:#212121;}</style></defs><g id="Layer_2" data-name="Layer 2"><g id="Layer_1-2" data-name="Layer 1"><path class="cls-1" d="M10,2a2,2,0,0,1,2-2h7a2,2,0,0,1,2,2V8a2,2,0,0,1-2,2H12a2,2,0,0,1-2-2Zm2.5,1a.5.5,0,0,0,0,1h6a.5.5,0,0,0,0-1Zm0,3a.5.5,0,0,0,0,1h6a.5.5,0,0,0,0-1ZM3.25,2H9V8a3,3,0,0,0,3,3h7a3,3,0,0,0,1-.17v2.92A3.26,3.26,0,0,1,16.75,17H11L5.58,20.82a1,1,0,0,1-1.4-.24A1,1,0,0,1,4,20V17H3.25A3.26,3.26,0,0,1,0,13.75V5.25A3.26,3.26,0,0,1,3.25,2Z"/></g></g></svg>