<svg width="24" height="24" viewBox="0 0 24 24" fill="none" xmlns="http://www.w3.org/2000/svg">
<path d="M14.7286 18.5173L14.7281 18.5177C14.2047 18.9312 13.7221 19.3064 13.2525 19.5809C12.7827 19.8555 12.3731 20.0001 12 20.0001C11.627 20.0001 11.2175 19.8553 10.7475 19.5807C10.2778 19.3061 9.79514 18.931 9.27148 18.5184C8.98456 18.2921 8.69091 18.0657 8.39426 17.837C7.13929 16.8695 5.83068 15.8607 4.75159 14.6457C3.43455 13.1628 2.5 11.4125 2.5 9.13709C2.5 6.89263 3.76857 4.99746 5.52034 4.19684C7.24056 3.41065 9.51761 3.6432 11.6397 5.84876L12 6.22319L12.3603 5.84879C14.4823 3.64374 16.7594 3.41138 18.4796 4.19771C20.2314 4.99845 21.5 6.89363 21.5 9.13809C21.5 11.413 20.5657 13.1633 19.2488 14.6461C18.1679 15.8631 16.8565 16.8733 15.5992 17.8417C15.3048 18.0685 15.0134 18.293 14.7286 18.5173Z" fill="#F1F1F1" stroke="#7C3AED"/>
</svg>
