<svg width="60" height="60" viewBox="0 0 60 60" fill="none" xmlns="http://www.w3.org/2000/svg">
<path d="M26.375 6.33C27.3894 5.47506 28.6734 5.00616 30 5.00616C31.3266 5.00616 32.6106 5.47506 33.625 6.33L50.5 20.56C51.7675 21.63 52.5 23.2025 52.5 24.86V49.3675C52.5 50.5278 52.0391 51.6406 51.2186 52.4611C50.3981 53.2816 49.2853 53.7425 48.125 53.7425H39.375C38.2147 53.7425 37.1019 53.2816 36.2814 52.4611C35.4609 51.6406 35 50.5278 35 49.3675V35.6175C35 35.4517 34.9342 35.2928 34.8169 35.1756C34.6997 35.0583 34.5408 34.9925 34.375 34.9925H25.625C25.4592 34.9925 25.3003 35.0583 25.1831 35.1756C25.0658 35.2928 25 35.4517 25 35.6175V49.3675C25 50.5278 24.5391 51.6406 23.7186 52.4611C22.8981 53.2816 21.7853 53.7425 20.625 53.7425H11.875C11.3005 53.7425 10.7316 53.6293 10.2008 53.4095C9.66996 53.1896 9.18766 52.8674 8.78141 52.4611C8.37515 52.0548 8.05289 51.5725 7.83303 51.0417C7.61316 50.5109 7.5 49.942 7.5 49.3675V24.86C7.5 23.2025 8.2325 21.63 9.5 20.56L26.375 6.33ZM31.2075 9.1975C30.8695 8.91296 30.4418 8.75693 30 8.75693C29.5582 8.75693 29.1305 8.91296 28.7925 9.1975L11.9175 23.425C11.7087 23.6008 11.5407 23.8201 11.4255 24.0675C11.3102 24.3149 11.2503 24.5845 11.25 24.8575V49.365C11.25 49.71 11.53 49.99 11.875 49.99H20.625C20.7908 49.99 20.9497 49.9242 21.0669 49.8069C21.1842 49.6897 21.25 49.5308 21.25 49.365V35.615C21.25 33.1975 23.21 31.24 25.625 31.24H34.375C36.79 31.24 38.75 33.1975 38.75 35.615V49.365C38.75 49.71 39.03 49.99 39.375 49.99H48.125C48.2908 49.99 48.4497 49.9242 48.5669 49.8069C48.6842 49.6897 48.75 49.5308 48.75 49.365V24.86C48.7497 24.587 48.6898 24.3174 48.5745 24.07C48.4593 23.8226 48.2913 23.6033 48.0825 23.4275L31.2075 9.1975Z" fill="#7C3AED"/>
</svg>
