<svg width="24" height="24" viewBox="0 0 24 24" fill="none" xmlns="http://www.w3.org/2000/svg">
<path d="M8.205 4.844C8.44481 4.73618 8.71744 4.72716 8.96386 4.81887C9.21028 4.91058 9.41066 5.09566 9.52163 5.33403C9.6326 5.5724 9.64522 5.84488 9.55676 6.09249C9.4683 6.34009 9.28589 6.5429 9.049 6.657C7.60344 7.32835 6.43042 8.47312 5.72401 9.90187C5.0176 11.3306 4.82016 12.9577 5.16434 14.514C5.50853 16.0702 6.37371 17.4623 7.61675 18.4599C8.85978 19.4575 10.4062 20.0009 12 20C13.5918 19.9996 15.1359 19.4565 16.3775 18.4604C17.6191 17.4643 18.484 16.0746 18.8294 14.5208C19.1749 12.9669 18.9803 11.3417 18.2777 9.91337C17.5752 8.485 16.4067 7.33883 14.965 6.664C14.846 6.60832 14.7392 6.52975 14.6506 6.43278C14.562 6.3358 14.4933 6.22233 14.4485 6.09883C14.3582 5.8494 14.3705 5.57429 14.483 5.334C14.5955 5.09371 14.7988 4.90794 15.0482 4.81755C15.2976 4.72716 15.5727 4.73955 15.813 4.852C17.3633 5.57658 18.6748 6.72833 19.5936 8.17209C20.5123 9.61584 21.0002 11.2917 21 13.003C21 17.973 16.97 22 12 22C7.03 22 3 17.972 3 13.004C2.99966 11.2892 3.48942 9.61007 4.41159 8.16436C5.33376 6.71865 6.64992 5.56662 8.205 4.844ZM12 2C12.2449 2.00003 12.4813 2.08996 12.6644 2.25272C12.8474 2.41547 12.9643 2.63975 12.993 2.883L13 3V10C13 10.255 12.9026 10.5003 12.7277 10.6858C12.5528 10.8713 12.3136 10.9831 12.0591 10.9981C11.8046 11.0132 11.5539 10.9305 11.3584 10.7669C11.1628 10.6033 11.0371 10.3712 11.007 10.118L11 10V3C11 2.73478 11.1054 2.48043 11.2929 2.29289C11.4804 2.10536 11.7348 2 12 2Z" fill="#9096A2"/>
</svg>
