<?xml version="1.0" encoding="UTF-8" standalone="no" ?>
<!DOCTYPE svg PUBLIC "-//W3C//DTD SVG 1.1//EN" "http://www.w3.org/Graphics/SVG/1.1/DTD/svg11.dtd">
<svg xmlns="http://www.w3.org/2000/svg" xmlns:xlink="http://www.w3.org/1999/xlink" version="1.1" width="24" height="24" viewBox="0 0 24 24" xml:space="preserve">
<desc>Created with Fabric.js 5.3.0</desc>
<defs>
</defs>
<g transform="matrix(1 0 0 1 12 12)" id="E9KMmKLJc_W62EBbEt-OC"  >
<path style="stroke: none; stroke-width: 1; stroke-dasharray: none; stroke-linecap: butt; stroke-dashoffset: 0; stroke-linejoin: miter; stroke-miterlimit: 4; fill: rgb(177,175,255); fill-rule: nonzero; opacity: 1;"  transform=" translate(-12, -12)" d="M 12 8 C 10.895430500338414 8 10 7.1045694996615865 10 6 C 10 4.8954305003384135 10.895430500338414 4 12 4 C 13.104569499661586 4 14 4.895430500338413 14 6 C 14 7.1045694996615865 13.104569499661588 8 12 8 Z M 12 14 C 10.895430500338414 14 10 13.104569499661586 10 12 C 10 10.895430500338414 10.895430500338414 10 12 10 C 13.104569499661586 10 14 10.895430500338414 14 12 C 14 13.104569499661586 13.104569499661588 14 12 14 Z M 10 18 C 10 19.104569499661586 10.895430500338414 20 12 20 C 13.104569499661586 20 14 19.104569499661586 14 18 C 14 16.895430500338414 13.104569499661586 16 12 16 C 10.895430500338414 16 10 16.895430500338414 10 18 Z" stroke-linecap="round" />
</g>
</svg>