<svg width="20" height="25" viewBox="0 0 20 25" fill="none" xmlns="http://www.w3.org/2000/svg">
<path d="M1 23.0902V23.0898V3.81903C1 3.06555 1.29408 2.34652 1.81188 1.8192C2.32906 1.29249 3.0266 1 3.75 1H16.25C16.9734 1 17.6709 1.29249 18.1881 1.8192C18.7059 2.34652 19 3.06555 19 3.81903V23.0898V23.0902C19.0001 23.253 18.9581 23.4119 18.8795 23.551C18.801 23.6899 18.6894 23.8031 18.5575 23.881C18.4258 23.9589 18.2778 23.9995 18.128 24C17.9783 24.0005 17.83 23.9611 17.6978 23.8842L11.123 20.0576L11.1228 20.0575C10.7821 19.8593 10.395 19.7543 10 19.7543C9.60504 19.7543 9.21795 19.8593 8.87716 20.0575L8.87699 20.0576L2.30216 23.8842C2.16997 23.9611 2.02169 24.0005 1.87196 24C1.72223 23.9995 1.57419 23.9589 1.44249 23.881C1.31064 23.8031 1.19899 23.6899 1.1205 23.551C1.04194 23.4119 0.999945 23.253 1 23.0902Z" fill="#B1AFFF" stroke="#B1AFFF" stroke-width="2"/>
</svg>
