<svg width="60" height="60" viewBox="0 0 60 60" fill="none" xmlns="http://www.w3.org/2000/svg">
<path d="M25 6.875C28.4252 6.87457 31.7805 7.84473 34.677 9.67304C37.5734 11.5014 39.8925 14.113 41.3656 17.2053C42.8386 20.2976 43.4053 23.744 42.9999 27.1452C42.5945 30.5464 41.2336 33.7631 39.075 36.4225L51.325 48.6725C51.6613 49.0066 51.8586 49.4558 51.8771 49.9295C51.8956 50.4033 51.7339 50.8665 51.4247 51.2258C51.1154 51.5851 50.6815 51.814 50.2103 51.8663C49.739 51.9185 49.2655 51.7903 48.885 51.5075L48.675 51.325L36.4225 39.075C34.1697 40.9028 31.5111 42.1631 28.6701 42.7501C25.829 43.3371 22.8886 43.2335 20.0959 42.4482C17.3032 41.6628 14.7399 40.2186 12.6212 38.2368C10.5026 36.2551 8.89061 33.7937 7.92072 31.0596C6.95084 28.3255 6.65141 25.3986 7.0476 22.5247C7.44378 19.6509 8.524 16.9141 10.1975 14.5444C11.871 12.1748 14.0888 10.2414 16.6646 8.90681C19.2404 7.57223 22.099 6.87545 25 6.875ZM25 10.625C23.1122 10.625 21.243 10.9968 19.4989 11.7192C17.7549 12.4416 16.1702 13.5005 14.8353 14.8353C13.5005 16.1702 12.4416 17.7549 11.7192 19.4989C10.9968 21.243 10.625 23.1122 10.625 25C10.625 26.8878 10.9968 28.757 11.7192 30.5011C12.4416 32.2451 13.5005 33.8298 14.8353 35.1647C16.1702 36.4995 17.7549 37.5584 19.4989 38.2808C21.243 39.0032 23.1122 39.375 25 39.375C28.8125 39.375 32.4688 37.8605 35.1647 35.1647C37.8605 32.4688 39.375 28.8125 39.375 25C39.375 21.1875 37.8605 17.5312 35.1647 14.8353C32.4688 12.1395 28.8125 10.625 25 10.625Z" fill="#7C3AED"/>
</svg>
