<svg xmlns="http://www.w3.org/2000/svg" viewBox="0 0 19 18"><defs><style>.cls-1{fill:#212121;}</style></defs><g id="Layer_2" data-name="Layer 2"><g id="Layer_1-2" data-name="Layer 1"><path class="cls-1" d="M3.75,1H7.21A.75.75,0,0,1,8,1.75a.74.74,0,0,1-.64.74H3.75A2.25,2.25,0,0,0,1.51,4.6v9.65A2.27,2.27,0,0,0,3.6,16.5h9.65a2.27,2.27,0,0,0,2.25-2.1v-.65a.75.75,0,0,1,.74-.75.73.73,0,0,1,.75.65v.6A3.76,3.76,0,0,1,13.45,18H3.75A3.74,3.74,0,0,1,0,14.45V4.75A3.74,3.74,0,0,1,3.55,1ZM11.5,3.54V.75A.76.76,0,0,1,12.25,0a.77.77,0,0,1,.44.14l.08.07,6,5.75a.75.75,0,0,1,.07,1L18.77,7l-6,5.75a.75.75,0,0,1-1.06,0,.72.72,0,0,1-.2-.41V9.45h-.32a8.78,8.78,0,0,0-6.86,3.31A.75.75,0,0,1,3,12.13c.83-5.14,3.6-8,8.19-8.56l.3,0v0Z"/></g></g></svg>