<svg width="60" height="60" viewBox="0 0 60 60" fill="none" xmlns="http://www.w3.org/2000/svg">
<path d="M27.365 5.1175L27.3775 5.135C28.24 5.045 29.115 5 30 5C43.805 5 55 16.1925 55 30C55 43.8075 43.805 55 30 55C26.1911 55.0037 22.4318 54.1355 19.0102 52.462C15.5886 50.7885 12.5954 48.354 10.26 45.345H10.2525V45.3375C6.83925 40.9543 4.99031 35.5554 5.00001 30C5.00001 17.095 14.7775 6.475 27.33 5.14L27.365 5.1175ZM30 8.75L29.6 8.7525C29.9075 9.365 30.2375 10.085 30.535 10.8775C31.4025 13.185 32.2 16.5825 30.785 19.595C29.48 22.3775 27.225 23.095 25.56 23.5275L25.35 23.58C23.7075 24.005 23.075 24.1675 22.6175 24.865C22.1925 25.5075 22.2575 26.32 22.77 27.99L22.885 28.36C23.09 29.005 23.335 29.785 23.46 30.5175C23.62 31.4275 23.665 32.585 23.08 33.705C22.5879 34.7031 21.803 35.5273 20.83 36.0675C19.9775 36.53 19.095 36.7075 18.435 36.8225L18.2025 36.865C16.915 37.09 16.3 37.2 15.7025 37.84C15.235 38.34 14.935 39.2225 14.76 40.5375C14.6875 41.0725 14.645 41.605 14.6 42.1525L14.575 42.445C14.525 43.05 14.465 43.7475 14.3275 44.345V44.35C16.3165 46.5273 18.7379 48.2656 21.437 49.4538C24.1361 50.6419 27.0535 51.2537 30.0025 51.25C33.9425 51.25 37.635 50.175 40.8 48.305C40.5266 48.0271 40.2679 47.735 40.025 47.43C39.175 46.36 38.06 44.52 38.4475 42.3475C38.6325 41.3025 39.1925 40.4275 39.735 39.7575C40.2894 39.0981 40.891 38.4798 41.535 37.9075L41.93 37.5425C42.3775 37.135 42.755 36.79 43.08 36.45C43.51 36 43.605 35.795 43.61 35.7825C43.78 35.2225 43.5725 34.8225 43.345 34.6475C43.2083 34.5447 43.041 34.4909 42.87 34.495C42.66 34.495 42.32 34.555 41.8675 34.845C41.5617 35.0454 41.2122 35.1693 40.8484 35.2063C40.4847 35.2433 40.1174 35.1922 39.7775 35.0575C39.266 34.8389 38.8396 34.4598 38.5625 33.9775C38.2025 33.385 38 32.6125 37.8675 32.0475C37.7675 31.6125 37.6675 31.1175 37.58 30.665L37.48 30.15C37.3988 29.693 37.2869 29.242 37.145 28.8L37.095 28.7075C37.0453 28.6179 36.9919 28.5303 36.935 28.445C36.7542 28.175 36.5649 27.9107 36.3675 27.6525L36.0925 27.295C35.6421 26.7168 35.2118 26.1231 34.8025 25.515C34.3125 24.77 33.76 23.795 33.585 22.755C33.4734 22.1416 33.5207 21.5099 33.7225 20.92C33.9575 20.26 34.385 19.715 34.94 19.2975C36.1475 18.3925 37.9225 16.3675 39.4975 14.4C40.2175 13.5025 40.8575 12.6625 41.3375 12.025C37.9456 9.87976 34.0134 8.74387 30 8.75ZM44.3175 14.3C43.825 14.9575 43.165 15.82 42.425 16.745C40.92 18.6225 38.925 20.9575 37.3 22.2125C37.365 22.4625 37.55 22.8675 37.9375 23.4575C38.265 23.9575 38.64 24.4475 39.0375 24.9675L39.36 25.3925C39.79 25.965 40.3875 26.7625 40.66 27.5025C40.8775 28.0875 41.0325 28.8 41.155 29.4075L41.2775 30.0225C41.34 30.3475 41.4 30.655 41.465 30.9475C42.9675 30.5175 44.4675 30.7775 45.64 31.6825C47.16 32.8575 47.795 34.8975 47.2 36.8675C46.925 37.7725 46.29 38.5175 45.7925 39.04C45.3675 39.4825 44.8625 39.945 44.4025 40.365L44.0725 40.665C43.4975 41.195 43.015 41.665 42.6525 42.1125C42.2825 42.5725 42.165 42.86 42.14 43.0025C42.04 43.55 42.3075 44.2775 42.96 45.0975C43.2428 45.4505 43.5557 45.7784 43.895 46.0775C46.2058 44.0848 48.0591 41.6168 49.3285 38.8421C50.5978 36.0673 51.2533 33.0513 51.25 30C51.253 27.0443 50.6378 24.1207 49.4439 21.4169C48.2501 18.7131 46.5039 16.2889 44.3175 14.3ZM8.75001 30C8.75001 33.495 9.59501 36.795 11.09 39.7025C11.3025 38.31 11.745 36.5825 12.96 35.2825C14.46 33.6775 16.2975 33.375 17.455 33.185L17.78 33.1325C18.4 33.0225 18.7575 32.925 19.035 32.775C19.255 32.6525 19.505 32.455 19.755 31.9725C19.7925 31.9025 19.86 31.705 19.765 31.16C19.6552 30.6215 19.5116 30.0904 19.335 29.57C19.285 29.42 19.235 29.2575 19.185 29.09C18.7225 27.58 17.985 25.085 19.485 22.8025C20.79 20.8225 22.885 20.3175 24.2175 19.995L24.6225 19.895C26.03 19.5325 26.83 19.195 27.3925 18C28.13 16.4275 27.8125 14.2875 27.0275 12.2C26.6322 11.163 26.1471 10.1625 25.5775 9.21C20.817 10.2255 16.5492 12.8441 13.4873 16.6281C10.4254 20.4121 8.75494 25.1324 8.75501 30H8.75001Z" fill="#9096A2"/>
</svg>
